<?xml version="1.0" encoding="utf-8"?>
<!-- Svg Vector Icons : http://www.onlinewebfonts.com/icon -->
<!DOCTYPE svg PUBLIC "-//W3C//DTD SVG 1.1//EN" "http://www.w3.org/Graphics/SVG/1.1/DTD/svg11.dtd">
<svg version="1.1" xmlns="http://www.w3.org/2000/svg" xmlns:xlink="http://www.w3.org/1999/xlink" x="0px" y="0px" viewBox="0 0 1000 1000" enable-background="new 0 0 1000 1000" xml:space="preserve">
<metadata> Svg Vector Icons : http://www.onlinewebfonts.com/icon </metadata>
<g><g transform="translate(0.000000,511.000000) scale(0.100000,-0.100000)"><path d="M5764.3,4060.2c-583.6-419-1132.7-987.3-1327.8-1373.8c-124.4-246.8-153.1-378.8-153.1-698.4c0-388.4,45.9-530,288.9-905c57.4-86.1,103.3-160.7,103.3-164.6c0-5.7-67-44-147.3-89.9c-436.2-239.2-767.2-501.3-1115.5-887.8l-120.5-133.9l11.5,76.5c74.6,470.7-3.8,891.6-208.5,1119.3c-40.2,44-170.3,143.5-288.9,222c-116.7,78.4-241.1,170.3-275.5,204.7c-63.1,61.2-265.9,461.1-265.9,520.4c0,47.8-105.2,143.5-156.9,143.5c-82.3,0-133.9-59.3-239.2-285.1c-235.3-501.3-407.5-972-445.8-1220.7c-72.7-468.8,287-956.7,1058.1-1436.9c103.3-63.1,197.1-118.6,208.6-122.5c11.5-3.8-80.4-187.5-202.8-407.5c-122.5-220-221.9-407.5-221.9-419c0-9.6-32.5,49.8-74.6,133.9c-172.2,355.9-396.1,579.8-872.5,874.4c-93.8,57.4-208.5,137.8-254.5,176C982.9-543.3,879.6-369.2,831.8-218C805-135.8,730.4-68.8,665.3-68.8c-23,0-65.1-19.1-91.8-42.1C481.6-195,252-1023.5,210-1419.6c-15.3-141.6,13.4-407.5,65-606.5c103.3-405.6,336.7-665.8,736.6-826.6c107.1-42.1,174.1-55.5,340.6-63.1l206.6-9.6l-53.6-57.4c-84.2-89.9-346.3-279.4-484.1-348.2c-149.2-74.6-380.8-158.8-641-229.6c-267.9-74.6-340.6-164.5-231.5-290.8c36.3-42.1,61.2-51.7,120.5-49.7c103.3,1.9,698.4,200.9,884,294.6c394.1,197.1,828.5,610.4,1065.7,1016l86.1,147.3l162.6-132c300.4-239.2,518.5-325.3,839.9-325.3c315.7,0,675.4,78.4,950.9,208.6c315.7,147.3,868.6,510.8,1249.4,818.9c103.3,84.2,114.8,101.4,120.5,172.2c9.6,126.3-32.5,145.4-392.2,183.7c-277.4,30.6-398,55.5-799.8,170.3c-93.8,26.8-214.3,42.1-396.1,47.8c-409.4,15.3-679.2-53.6-983.4-252.6c-168.4-109.1-254.5-156.9-376.9-208.6l-72.7-28.7l55.5,99.5c30.6,53.6,114.8,202.8,185.6,329.1c70.8,126.3,185.6,310,252.6,407.5c109.1,156.9,390.3,522.3,455.4,593.1c17.2,19.1,36.4-5.7,95.7-124.4c139.7-288.9,531.9-616.1,876.3-734.7c311.9-107.1,734.7-120.5,1138.4-38.3c357.8,74.6,512.8,151.1,807.4,401.8c279.3,239.2,361.6,275.5,813.2,354c285.1,49.7,334.8,74.6,334.8,177.9c0,84.2-34.4,116.7-300.4,269.8C6837.7,225.9,6434,403.8,5990.1,532c-443.9,128.2-817,139.7-1178.6,32.5c-111-32.5-204.7-55.5-208.5-51.7c-9.6,9.6,313.8,183.7,340.6,183.7c13.4,0,68.9,26.8,122.4,59.3c128.2,80.4,428.6,206.6,929.9,396.1c499.4,187.5,516.6,191.3,516.6,145.4c0-21.1,21-80.4,45.9-132c112.9-243,396-365.4,891.6-386.5c392.2-15.3,732.8,55.5,991.1,208.6c168.4,97.6,671.6,616.1,1255.1,1293.4c225.8,262.1,243,308,153.1,398c-61.2,63.1-103.3,57.4-376.9-47.8c-126.3-47.8-252.6-84.2-325.3-89.9c-114.8-11.5-430.5,32.5-1046.6,145.4c-246.8,45.9-388.4,47.8-595,9.6c-466.9-86.1-773-267.9-903.1-533.8c-57.4-116.7-109.1-311.9-109.1-417.1c0-38.3-11.5-76.5-23-86.1c-13.4-7.6-124.4-51.7-244.9-93.8c-120.5-44-277.4-101.4-348.2-128.2c-72.7-26.8-130.1-45.9-130.1-40.2c0,5.7,17.2,34.4,36.3,63.1c68.9,95.7,212.4,399.9,267.9,570.2c116.7,344.4,99.5,614.2-59.3,1000.7c-89.9,218.1-99.5,252.6-99.5,382.7c1.9,112.9,15.3,177.9,63.1,306.1c78.5,204.7,86.1,237.2,70.8,296.6c-11.5,45.9-97.6,105.2-151.1,105.2C5860,4121.4,5810.3,4094.6,5764.3,4060.2z M5661,3028.9c38.3-99.5,88-227.7,111-285.1c32.5-84.2,40.2-145.4,40.2-296.6c-1.9-166.5-9.6-214.3-63.1-363.5c-139.7-386.5-365.4-719.4-616.1-906.9c-84.2-65.1-158.8-116.7-166.5-116.7c-7.7,0-23,15.3-36.4,36.4c-19.1,30.6-11.5,42.1,72.7,86.1c51.7,28.7,93.8,55.5,93.8,61.2c0,19.1-59.3,122.5-68.9,122.5c-7.6,0-55.5-23-107.1-51.7c-93.8-51.7-95.7-51.7-122.4-15.3c-38.3,51.7-34.4,63.1,36.3,93.8c32.5,15.3,128.2,57.4,210.5,95.7l147.3,70.8l-30.6,61.2c-17.2,34.4-34.4,63.1-36.3,67c-1.9,1.9-101.4-38.3-220-93.8c-116.7-53.6-220-89.9-227.7-82.3c-7.7,9.6-23,40.2-36.4,68.9c-24.9,59.3-51.7,38.3,382.7,271.7l168.4,89.9l-30.6,61.2c-17.2,34.5-34.4,63.2-36.3,67c-3.8,3.8-118.6-55.5-258.3-128.2c-137.8-74.6-260.2-135.8-269.8-135.8c-9.6,0-17.2,24.9-17.2,53.6c0,49.7,24.9,67,296.6,222c164.5,93.8,302.3,176,308,185.6c7.7,15.3-42.1,132-57.4,132c-3.8,0-103.3-55.5-221.9-124.4c-116.7-68.9-239.2-137.8-269.8-153.1c-53.6-28.7-55.5-28.7-55.5,17.2c0,38.3,51.7,74.6,373.1,262.1c204.7,120.5,373.1,223.9,373.1,231.5s-15.3,40.2-34.4,70.8l-32.5,55.5l-229.6-133.9c-126.3-74.6-266-155-311.9-181.8l-80.4-47.8l38.3,89.9c89.9,210.5,430.5,625.7,729,887.8l160.7,143.5l13.4-153.1C5586.4,3254.7,5611.3,3155.2,5661,3028.9z M8167.5,2363.1c292.7-63.1,851.4-139.7,966.2-132c109.1,5.7,109.1,5.7,78.4-34.4c-107.1-135.8-401.8-428.6-411.4-411.4c-28.7,45.9-65,13.4-170.3-158.8c-61.2-97.6-143.5-208.6-181.8-244.9c-82.3-78.4-193.3-156.9-204.7-145.4c-3.8,3.8,51.7,97.6,124.4,206.6c74.6,111,133.9,206.6,133.9,214.3c0,7.6-24.9,30.6-57.4,53.6l-57.4,40.2l-204.7-311.9L7976.1,1127l-114.8-23c-63.1-11.5-118.6-17.2-124.4-13.4c-5.7,5.7,95.7,109.1,225.8,231.5c128.2,120.5,233.4,229.6,233.4,243c0,13.4-21,44-47.8,68.9l-49.7,45.9l-300.4-300.4c-283.2-283.2-304.2-300.4-373.1-300.4c-40.2,0-70.8,7.7-67,17.2c3.8,7.6,118.6,112.9,254.5,231.5c137.8,118.6,250.6,221.9,254.5,229.6c3.8,7.7-15.3,38.3-40.2,68.9l-45.9,51.7l-294.6-254.5c-162.6-141.6-310-267.9-327.2-283.2c-30.6-24.9-44-24.9-120.5,5.7c-70.8,26.8-84.2,38.3-65.1,59.3c11.5,15.3,141.6,126.3,287,248.7l266,221.9l-44,55.5c-23,28.7-47.8,53.6-53.6,53.6c-5.8,1.9-143.5-109.1-306.1-246.8c-235.4-197.1-296.6-241.1-306.1-214.3c-26.8,72.7-34.5,317.6-17.2,447.7c49.7,346.3,231.5,512.8,673.5,608.4C7683.4,2426.2,7901.5,2420.4,8167.5,2363.1z M2155.8,1431.3c76.5-153.1,220-296.6,468.8-463c248.7-164.6,310-231.5,359.7-382.7c72.7-216.2,30.6-794-80.4-1136.5c-26.8-82.3-53.6-149.2-57.4-149.2c-15.3,0-122.5,57.4-122.5,67c0,3.8,17.2,36.4,38.3,72.7l40.2,67l-63.1,40.2c-57.4,36.3-65,36.3-82.3,9.6c-9.6-17.2-34.4-49.8-51.7-72.7c-28.7-36.3-34.4-38.3-63.1-9.6c-30.6,28.7-26.8,42.1,36.3,178l67,145.4l-68.9,28.7c-38.3,17.2-72.7,26.8-74.6,23c-3.8-3.8-32.5-63.1-65-133.9l-57.4-128.2l-47.8,30.6c-26.8,17.2-47.8,40.2-47.8,49.8c0,11.5,44,99.5,95.7,197.1c53.6,97.6,95.7,181.8,95.7,187.5c0,11.5-103.3,70.8-122.5,70.8c-3.8,0-49.8-76.5-101.4-172.2c-49.7-93.8-95.7-172.2-103.3-172.2c-5.7,0-24.9,15.3-42.1,34.4c-26.8,30.6-23,49.8,72.7,262.1l101.4,229.6l-67,34.4c-36.4,19.1-68.9,32.5-70.8,28.7c-1.9-3.8-42.1-89.9-88-193.2c-45.9-103.3-89.9-191.3-97.6-195.2c-5.7-3.8-30.6,17.2-53.6,47.8l-40.2,57.4L1997,336.8c72.7,137.8,133.9,254.5,133.9,258.3c0,1.9-26.8,19.1-61.2,36.3c-74.6,38.3-74.6,36.4-199-206.6c-45.9-93.8-91.8-168.4-103.3-168.4c-9.6,0-23,28.7-28.7,63.1c-11.5,53.6,5.7,103.3,101.4,292.7c153.1,306.1,151.2,302.3,78.5,332.9c-49.8,21-57.4,32.5-49.8,74.6c15.3,70.8,204.7,518.5,221.9,518.5C2098.4,1538.4,2127.1,1490.6,2155.8,1431.3z M5628.5,304.3c325.3-63.1,761.5-216.2,1140.4-405.6c133.9-67,241.1-126.3,235.3-132c-3.8-3.8-70.8-26.8-149.2-47.8c-76.5-21.1-199-68.9-269.8-107.2c-124.4-65-132-67-177.9-36.3c-24.9,17.2-55.5,30.6-65.1,30.6c-11.5,0-70.8-84.2-133.9-185.6c-86.1-141.6-135.8-200.9-197.1-237.2c-88-53.6-279.3-122.5-294.7-107.1c-5.7,5.7,68.9,101.4,166.5,216.2l176,204.7l-51.7,45.9c-28.7,23-57.4,44-65,44c-7.7,0-120.5-130.1-252.6-287c-266-315.7-266-315.7-499.4-302.3l-109.1,5.7l342.5,267.9c315.7,246.8,338.7,269.8,315.7,304.2c-59.3,91.8-65,89.9-486-243l-403.7-319.5l-97.6,21c-53.6,11.5-95.7,26.8-91.8,36.4c3.8,7.7,114.8,107.1,250.6,218.1c133.9,112.9,243,212.4,243,220c0,7.6-21.1,34.4-47.8,59.3c-42.1,40.2-51.7,42.1-80.4,15.3c-65-53.6-493.6-407.5-524.2-430.5c-24.9-19.1-45.9-13.4-120.5,32.5c-49.7,32.5-86.1,65.1-80.4,74.6c5.7,9.6,114.8,91.8,241.1,181.8c126.3,91.8,229.6,174.1,229.6,183.7s-19.1,38.3-42.1,65.1l-44,47.8l-266-193.3l-265.9-195.2l-55.5,63.2c-53.6,59.3-53.6,65-21,86.1c19.1,13.4,135.8,86.1,258.3,162.6l223.9,137.7l-40.2,67l-38.3,65.1l-70.8-42.1c-38.3-23-137.8-86.1-221.9-139.7c-252.6-162.6-231.5-158.8-287-49.7c-26.8,53.6-47.8,105.2-47.8,116.7c0,26.8,484.1,260.2,736.6,354C5018.1,331.1,5297.5,367.5,5628.5,304.3z M759.1-734.6c72.7-95.7,206.6-202.8,409.5-327.2c296.6-183.7,405.6-269.8,528.1-413.3c243-287,321.4-487.9,283.2-727.1c-24.9-143.5-86.1-296.6-151.1-373.1l-42.1-47.8l13.4,139.7l11.5,137.8h-76.5h-76.5l-13.4-133.9l-13.4-133.9h-86.1c-97.6,0-95.7-7.7-57.4,225.8l24.9,156.9l-44,11.5c-101.4,24.9-111,11.5-139.7-199l-26.8-197.1l-59.3,13.4c-32.5,5.8-65.1,15.3-70.8,19.1c-5.7,3.8,13.4,114.8,45.9,246.8c30.6,132,53.6,243,49.7,248.7c-3.8,3.8-38.3,11.5-74.6,19.1l-68.9,11.5l-53.6-229.6c-28.7-128.2-59.3-231.5-67-231.5s-28.7,11.5-45.9,24.9c-28.7,21.1-26.8,45.9,42.1,338.7c42.1,174.1,70.8,321.4,63.1,327.2c-7.7,7.7-40.2,19.1-72.7,24.9l-61.2,13.4l-61.2-264c-74.6-321.4-80.4-331-122.5-271.7c-17.2,24.9-30.6,57.4-30.6,74.6c0,15.3,42.1,164.5,93.8,331c51.7,164.6,84.2,306.1,74.6,311.9c-9.6,5.8-42.1,17.2-72.7,26.8c-55.5,15.3-55.5,15.3-95.7-120.5c-86.1-290.8-103.3-338.7-116.7-338.7c-7.7,0-21,36.4-26.8,82.3c-9.6,67,3.8,126.3,84.2,354c53.6,151.2,97.6,281.3,97.6,290.8c0,23-118.6,61.2-133.9,44c-7.7-9.6-32.5-68.9-57.4-135.8c-23-65.1-45.9-116.7-49.7-112.9c-13.4,13.4,53.6,398,107.1,614.2c32.5,124.4,57.4,229.6,57.4,233.4C676.8-644.7,713.1-673.4,759.1-734.6z M4359.9-1647.3c220-61.2,530-135.8,641-156.9l84.2-15.3l-49.7-32.5c-45.9-30.6-57.4-30.6-122.4-3.8c-38.3,15.3-76.5,23-84.2,13.4c-7.7-7.6-32.5-63.1-57.4-120.5c-38.3-91.8-91.8-162.6-111-143.5c-3.8,3.8,11.5,40.2,32.5,84.2l40.2,76.5l-42.1,28.7c-24.9,15.3-55.5,30.6-67,34.4c-13.4,3.8-72.7-82.3-133.9-195.2c-99.5-179.9-120.5-206.6-214.3-262.1c-57.4-34.4-107.1-59.3-111-55.5c-3.8,3.8,59.3,109,139.7,231.5l147.3,223.9l-45.9,36.3c-24.9,19.1-55.5,36.4-67,36.4c-13.4,0-116.7-145.4-233.4-321.4l-208.6-321.4l-101.4-23c-55.5-13.4-103.3-21.1-107.1-19.1c-1.9,3.8,86.1,120.5,197.1,262.1c210.5,267.9,216.2,281.3,128.2,338.7c-34.4,23-55.5,0-292.7-300.4c-141.6-179.9-267.9-331-279.4-336.7c-13.4-3.8-63.1-5.7-112.9-1.9l-88,5.7l229.6,287l229.6,287l-47.8,44c-28.7,23-55.5,42.1-63.1,42.1c-9.6,0-130.1-141.6-267.9-315.7c-139.7-174.1-267.9-315.7-283.2-315.7c-15.3,0-59.3,13.4-99.5,30.6l-70.8,28.7l49.7,42.1c28.7,23,128.2,109.1,223.9,191.3l174.1,151.2l-40.2,55.5c-23,30.6-47.8,55.5-55.5,55.5c-5.7,0-116.7-91.8-244.9-202.8l-233.4-202.8l-133.9,109.1c-74.6,59.3-132,111-128.2,114.8c3.8,3.8,116.7,53.6,254.5,112.9c135.8,59.3,336.7,164.5,445.8,233.4c109.1,68.9,220,133.9,248.7,145.4C3682.6-1588,4078.7-1568.8,4359.9-1647.3z"/></g></g>
</svg>